<?xml version="1.0" encoding="utf-8"?>
<!-- Generator: Adobe Illustrator 16.0.0, SVG Export Plug-In . SVG Version: 6.00 Build 0)  -->
<!DOCTYPE svg PUBLIC "-//W3C//DTD SVG 1.1//EN" "http://www.w3.org/Graphics/SVG/1.1/DTD/svg11.dtd">
<svg version="1.1" id="Layer_1" xmlns="http://www.w3.org/2000/svg" xmlns:xlink="http://www.w3.org/1999/xlink" x="0px" y="0px"
	 width="20px" height="20px" viewBox="0 0 20 20" enable-background="new 0 0 20 20" xml:space="preserve">
<path fill="#35527C" d="M10.015,1.86c-4.487,0-8.125,3.637-8.125,8.125c0,4.489,3.638,8.126,8.125,8.126
	c4.486,0,8.125-3.637,8.125-8.126C18.14,5.498,14.501,1.86,10.015,1.86z M15.741,14.742c-0.744-0.311-2.498-0.918-3.582-1.238
	c-0.092-0.029-0.106-0.035-0.106-0.42c0-0.316,0.131-0.639,0.258-0.91c0.138-0.293,0.302-0.789,0.36-1.232
	c0.166-0.188,0.39-0.562,0.533-1.281c0.127-0.639,0.067-0.863-0.016-1.08c-0.009-0.021-0.018-0.045-0.023-0.068
	c-0.032-0.146,0.011-0.92,0.119-1.518c0.075-0.41-0.019-1.284-0.584-2.012c-0.355-0.457-1.041-1.018-2.287-1.096H9.728
	C8.5,3.962,7.816,4.523,7.46,4.98c-0.566,0.729-0.66,1.602-0.584,2.006C6.985,7.59,7.029,8.357,6.999,8.507
	c-0.008,0.021-0.017,0.051-0.025,0.07C6.89,8.793,6.831,9.019,6.957,9.651c0.144,0.725,0.368,1.102,0.533,1.288
	c0.059,0.441,0.223,0.938,0.361,1.232C7.953,12.389,8,12.682,8,13.098c0,0.385-0.015,0.389-0.102,0.416
	c-1.123,0.332-2.908,0.979-3.575,1.27c-1.095-1.299-1.757-2.973-1.757-4.801c0-4.104,3.341-7.445,7.448-7.445
	c4.106,0,7.448,3.341,7.448,7.445C17.462,11.793,16.814,13.451,15.741,14.742z"/>
</svg>
